<svg xmlns="http://www.w3.org/2000/svg" xmlns:xlink="http://www.w3.org/1999/xlink" width="71.955" height="46.883" viewBox="0 0 71.955 46.883">
  <defs>
    <filter id="Union_1" x="0" y="0" width="71.955" height="46.883" filterUnits="userSpaceOnUse">
      <feOffset dy="3" input="SourceAlpha"/>
      <feGaussianBlur stdDeviation="3" result="blur"/>
      <feFlood flood-opacity="0.161"/>
      <feComposite operator="in" in2="blur"/>
      <feComposite in="SourceGraphic"/>
    </filter>
  </defs>
  <g transform="matrix(1, 0, 0, 1, 0, 0)" filter="url(#Union_1)">
    <path id="Union_1-2" data-name="Union 1" d="M31.212,31.288v-.256q1.241,0,1.241-1.037V21.615q0-.544-.247-.671a2.383,2.383,0,0,0-.995-.111v-.221l2.686-.8v1.224a2.877,2.877,0,0,1,2.415-1.224,2.509,2.509,0,0,1,2.142,1.037,4.575,4.575,0,0,1,.714,2.7,4.448,4.448,0,0,1-1.02,2.941,3.366,3.366,0,0,1-2.687,1.275,2.193,2.193,0,0,1-1.564-.732V30q0,1.037,1.411,1.037v.256ZM33.9,21.666v4.3a1.107,1.107,0,0,0,.562.851,1.942,1.942,0,0,0,1.156.408,1.794,1.794,0,0,0,1.581-.969,3.957,3.957,0,0,0,.51-2.074,5.082,5.082,0,0,0-.493-2.431,1.732,1.732,0,0,0-1.6-.986A2.132,2.132,0,0,0,33.9,21.666Zm15.717,5.917a3.564,3.564,0,0,0-.926-.187q-.374,0-.374.238h-.238V25h.289q.475,2.38,2.142,2.38a1.593,1.593,0,0,0,.969-.288,1.037,1.037,0,0,0,.459-.9q0-.814-1.3-1.561l-1.172-.682a2.379,2.379,0,0,1-1.391-2.059,1.977,1.977,0,0,1,.637-1.446,2.282,2.282,0,0,1,1.675-.629,2.817,2.817,0,0,1,1,.186,2.356,2.356,0,0,0,.68.187.27.27,0,0,0,.272-.22h.221v2.311h-.272q-.51-2.074-1.87-2.074a1.421,1.421,0,0,0-.9.306.969.969,0,0,0-.391.8q0,.73,1.275,1.5l1.19.714q1.53.918,1.53,2.04a2,2,0,0,1-.782,1.666,2.778,2.778,0,0,1-1.734.545A3.675,3.675,0,0,1,49.614,27.582Zm-8.542-.816a4.126,4.126,0,0,1-1.021-2.941,4.279,4.279,0,0,1,.969-2.873A3.111,3.111,0,0,1,43.5,19.814a2.824,2.824,0,0,1,2.192.892,3.14,3.14,0,0,1,.816,2.2h-5.27a4.331,4.331,0,0,0,.791,2.66,2.34,2.34,0,0,0,1.93,1.063,2.545,2.545,0,0,0,1.58-.595,3.065,3.065,0,0,0,1-1.241l.272.119a3.953,3.953,0,0,1-1.335,2.015,3.312,3.312,0,0,1-2.15.841A2.944,2.944,0,0,1,41.072,26.766Zm.169-4.4h3.536q-.171-1.955-1.631-1.955Q41.5,20.408,41.242,22.363Zm-20.91,4.386a4.09,4.09,0,0,1-.985-2.856,4.214,4.214,0,0,1,1.037-2.924,3.56,3.56,0,0,1,2.788-1.156,3.022,3.022,0,0,1,1.76.509,1.428,1.428,0,0,1,.739,1.156.72.72,0,0,1-.22.527.741.741,0,0,1-.545.221.705.705,0,0,1-.553-.239.755.755,0,0,1-.212-.509,1.124,1.124,0,0,0-.34-.841,1.188,1.188,0,0,0-.867-.332,1.992,1.992,0,0,0-1.853,1.105,3.834,3.834,0,0,0-.442,1.853,3.745,3.745,0,0,0,.748,2.329,2.235,2.235,0,0,0,1.836.986,2.964,2.964,0,0,0,2.448-1.632l.239.136a7.076,7.076,0,0,1-1.275,1.853,2.812,2.812,0,0,1-2.04.833A2.923,2.923,0,0,1,20.332,26.749Zm-7.582.017a4.126,4.126,0,0,1-1.021-2.941,4.279,4.279,0,0,1,.969-2.873,3.111,3.111,0,0,1,2.482-1.138,2.824,2.824,0,0,1,2.192.892,3.14,3.14,0,0,1,.816,2.2H12.92a4.331,4.331,0,0,0,.79,2.66,2.34,2.34,0,0,0,1.93,1.063,2.545,2.545,0,0,0,1.58-.595,3.065,3.065,0,0,0,1-1.241l.272.119a3.948,3.948,0,0,1-1.335,2.015,3.31,3.31,0,0,1-2.15.841A2.944,2.944,0,0,1,12.75,26.766Zm.17-4.4h3.535q-.171-1.955-1.63-1.955Q13.177,20.408,12.92,22.363ZM26.809,27.6v-.239q1.292,0,1.292-1.088V21.717q0-.884-.645-.884a2.047,2.047,0,0,0-.646.136v-.255l2.737-.918v6.476q0,1.088,1.292,1.088V27.6Zm-18.428,0-4-5.185H3.4v3.808q0,1.053,1.513,1.054V27.6H.17v-.323q1.5,0,1.5-1.139V17.773a1.036,1.036,0,0,0-.289-.816A1.9,1.9,0,0,0,.17,16.668v-.323H5.032a5.768,5.768,0,0,1,2.84.612,2.56,2.56,0,0,1,1.36,2.4q0,2.311-3.077,2.839l3.3,4.063a2.283,2.283,0,0,0,1.7,1.021V27.6ZM3.791,17.008a.551.551,0,0,0-.391.6v4.146q3.892,0,3.893-2.354,0-2.423-2.856-2.423A3.6,3.6,0,0,0,3.791,17.008Zm27.787,1.681v-.256q1.241,0,1.241-1.037V9.016q0-.544-.247-.671a2.383,2.383,0,0,0-.994-.111V8.013l2.686-.8V8.438a2.876,2.876,0,0,1,2.415-1.224A2.509,2.509,0,0,1,38.82,8.251a4.581,4.581,0,0,1,.714,2.7,4.448,4.448,0,0,1-1.02,2.941,3.368,3.368,0,0,1-2.687,1.275,2.193,2.193,0,0,1-1.564-.732V17.4q0,1.037,1.411,1.037v.256Zm2.686-9.623v4.3a1.107,1.107,0,0,0,.562.851,1.942,1.942,0,0,0,1.156.408,1.794,1.794,0,0,0,1.581-.969,3.957,3.957,0,0,0,.509-2.074,5.083,5.083,0,0,0-.492-2.431,1.732,1.732,0,0,0-1.6-.986A2.132,2.132,0,0,0,34.263,9.067ZM28.05,17.5a.827.827,0,0,1-.239-.612.885.885,0,0,1,.239-.629A.8.8,0,0,1,28.662,16a.871.871,0,0,1,.884.885.8.8,0,0,1-.255.612.888.888,0,0,1-.629.238A.829.829,0,0,1,28.05,17.5Zm-7.183-2.263L16.43,5.344q-.578-1.276-1.564-1.275V3.746h4.523v.323q-1.224,0-1.292.51a1.526,1.526,0,0,0,.137.628l3.15,7.068L24,5.7a2.757,2.757,0,0,0,.2-1c0-.159-.107-.3-.323-.426a1.9,1.9,0,0,0-.918-.2V3.746h3.485v.323q-.952,0-1.479,1.326l-3.892,9.843ZM27.175,15v-.238q1.292,0,1.292-1.088V9.118q0-.884-.646-.884a2.047,2.047,0,0,0-.645.136V8.115L29.912,7.2v6.476q0,1.088,1.292,1.088V15ZM28.416,4.9a.827.827,0,0,1-.239-.612.885.885,0,0,1,.239-.629.8.8,0,0,1,.612-.256.873.873,0,0,1,.884.885.8.8,0,0,1-.256.612.885.885,0,0,1-.628.238A.829.829,0,0,1,28.416,4.9Z" transform="translate(9.33 3.09)" fill="#b76e79" stroke="rgba(0,0,0,0)" stroke-miterlimit="10" stroke-width="1"/>
  </g>
</svg>
